<svg xmlns="http://www.w3.org/2000/svg" viewBox="0 0 299.78 116.75"><defs><style>.cls-1{fill:#1d1d1b;}.cls-2{fill:#6500fe;}</style></defs><g id="Capa_2" data-name="Capa 2"><g id="Capa_1-2" data-name="Capa 1"><path class="cls-1" d="M87.47,33.66A18.52,18.52,0,0,0,84,26.89a11.09,11.09,0,0,0-8.22-3.44,11.29,11.29,0,0,0-8.28,3.44,18.9,18.9,0,0,0-3.38,6.77l-11.67,35-11.66-35a18.68,18.68,0,0,0-3.44-6.77,11.12,11.12,0,0,0-8.22-3.44,11.29,11.29,0,0,0-8.28,3.44,19.08,19.08,0,0,0-3.39,6.77l-16,65.6A41.68,41.68,0,0,0,0,105.09a11.24,11.24,0,0,0,3.41,8.25,11.23,11.23,0,0,0,8.25,3.41,11.15,11.15,0,0,0,8.22-3.38,18.37,18.37,0,0,0,3.39-6.82h.06l7.28-30.62,10.21,30.62h.06a.38.38,0,0,0,.06.17,11.18,11.18,0,0,0,3,6.36,11.68,11.68,0,0,0,8.51,3.67,11.63,11.63,0,0,0,11.55-10,.38.38,0,0,0,.06-.17h.06l10.2-30.62,7.29,30.62h.06A19,19,0,0,0,85,113.37a11.38,11.38,0,0,0,8.28,3.38A11.66,11.66,0,0,0,105,105.09a43.13,43.13,0,0,0-1.46-5.83Z"/><path class="cls-1" d="M269.66,46.78a11.66,11.66,0,0,0-19.88-8.28L223,72V35.11a11.67,11.67,0,0,0-23.33,0v70a11.67,11.67,0,0,0,19.95,8.22,11.56,11.56,0,0,0,1.75-2.21l13.29-16.8,15.11,19a11.06,11.06,0,0,0,8.22,3.44,11.64,11.64,0,0,0,11.66-11.66,11.39,11.39,0,0,0-3.38-8.28L249.19,75.93,266.28,55A11.21,11.21,0,0,0,269.66,46.78Z"/><path class="cls-1" d="M296.36,38.53a11.66,11.66,0,0,0-19.91,8.25v58.31a11.67,11.67,0,0,0,23.33,0V46.78A11.21,11.21,0,0,0,296.36,38.53Z"/><path class="cls-1" d="M287.69,23.33A11.28,11.28,0,0,0,296,19.92a11.28,11.28,0,0,0,3.41-8.26A11.27,11.27,0,0,0,296,3.41a11.7,11.7,0,0,0-16.51,0A11.27,11.27,0,0,0,276,11.66a11.28,11.28,0,0,0,3.41,8.26A11.27,11.27,0,0,0,287.69,23.33Z"/><path class="cls-2" d="M172.14,7.06c-1.56,5.63-2.74,11-4.66,16.14-.66,1.76-3.27,2.67-4.8,4.18s-3.38,3-4,4.88q-1.26,3.8-2.49,7.6c-2.37,7.3-4.65,14.63-6.91,22l-2.22,7.25a4.39,4.39,0,0,0,.81,3c1.67,2.66,1.87,5.29-.1,7.74a5.44,5.44,0,0,1-6.69,1.91,5.84,5.84,0,0,1-3.87-6.3c.29-3.16,2.19-4.85,5.15-5.67a4.14,4.14,0,0,0,2.56-2.34c.62-2.24,1.23-4.49,1.83-6.73,2-7.42,3.92-14.85,5.91-22.26.35-1.33.71-2.66,1.07-4A17.55,17.55,0,0,0,152.55,22a10.35,10.35,0,0,1-.46-6c.9-4.54,2.25-9,3.65-14.36,1.34,1.64,2,2.4,2.6,3.2,4.31,5.59,4.3,5.58,10.77,3.11C170,7.69,170.82,7.47,172.14,7.06Z"/><path class="cls-2" d="M180.19,77.5v-.26a1.34,1.34,0,0,0,0-.2c0-.25,0-.51,0-.76s0-.66,0-1h0a3.11,3.11,0,0,1,0-.43.22.22,0,0,1,0-.08q-.06-.77-.15-1.53c0-.28-.06-.56-.11-.84s-.1-.83-.17-1.24c-.15-1-.34-1.91-.57-2.86a.19.19,0,0,0,0-.1c-.07-.32-.15-.65-.24-1-.12-.49-.26-1-.4-1.47s-.26-.86-.42-1.28-.21-.62-.32-.92c-.23-.63-.46-1.26-.72-1.87a41.43,41.43,0,0,0-7.05-11.51c-.25-.3-.51-.59-.78-.88a39.78,39.78,0,0,0-7.87-6.66c-.45,1.41-.91,2.81-1.35,4.21-.75,2.35-1.49,4.68-2.2,6.95,7.79,5.76,14.25,18.55,10.37,32-4.22,14.63-19.28,22.56-33.15,17.38-14.22-5.3-22.17-21.56-17.74-36.29,3.7-12.34,15.75-20.35,27-18.69q.92-3.48,1.85-6.95c.36-1.4.74-2.8,1.11-4.2a35.09,35.09,0,0,0-16.08,1c-14.33,4.29-24,17-25.82,31.78q-.09.72-.15,1.44c0,.49-.07,1-.1,1.49s0,.88,0,1.32a42.35,42.35,0,0,0,1.8,13.15,41.74,41.74,0,0,0,16.44,22.65l.55.37a35.68,35.68,0,0,0,52.72-15c.14-.3.28-.61.41-.91s.33-.79.49-1.19.34-.88.49-1.32a1.8,1.8,0,0,0,.08-.21q.18-.49.33-1c.08-.25.16-.51.23-.76,0,0,0,0,0,0a38,38,0,0,0,1-4.49c0-.22.08-.45.11-.67a.5.5,0,0,0,0-.12c.07-.43.13-.87.19-1.3s.1-.89.14-1.34c0-.25,0-.5.07-.75V81c0-.42.06-.84.07-1.27,0-.58,0-1.17,0-1.76C180.2,77.81,180.2,77.66,180.19,77.5Z"/><path class="cls-2" d="M155.62,59.29q-.75,2.48-1.46,4.76l-1.74,5.69c2.72,4.58,2.5,9.43-.66,13.35a12.18,12.18,0,0,1-2.6,2.44,10.05,10.05,0,0,1-11.16.85,11.44,11.44,0,0,1-4.88-5.23c-1.85-4-1.5-9.35,1.59-12.64,0-.06.11-.11.16-.18a12.17,12.17,0,0,1,5-3.18c.41-1.47,1.34-4.93,1.39-5.16.56-2.06,1.1-4.12,1.65-6.18a19.2,19.2,0,0,0-14.7,5.3,21.39,21.39,0,0,0-6.75,13.54c-1.35,10.93,5.25,21.76,15.36,25.28S157.53,96.64,162,86.59A24,24,0,0,0,155.62,59.29Z"/><path class="cls-2" d="M192.94,48.67v53.81a14.11,14.11,0,0,1-14.11,14.11h-.62a14,14,0,0,1-9-3.25,42.92,42.92,0,0,0,12.4-15.73c.16-.35.32-.7.47-1s.37-.88.54-1.3.38-1,.55-1.47c.05-.12.09-.24.13-.36s.16-.47.24-.69l0,0,.39-1.3a43.73,43.73,0,0,0,1.19-5.11c0-.22.08-.45.11-.68s0-.23.06-.37c.06-.38.11-.76.17-1.13l.05-.45c.05-.41.09-.82.13-1.23s.06-.58.08-.88l0-.22v-.1c0-.44.05-.87.07-1.31,0-.65,0-1.31,0-2,0-.21,0-.4,0-.6v-.13c0-.09,0-.25,0-.46s0-.47,0-.66,0-.63-.05-1v-.24l0-.22V74l-.08-.25c0-.37-.07-.74-.12-1.1s-.07-.64-.12-1c-.05-.49-.12-1-.19-1.37-.16-1-.37-2.08-.61-3.09a4.9,4.9,0,0,0-.13-.55c-.07-.28-.14-.57-.22-.85-.12-.51-.27-1-.43-1.58l0-.12c-.15-.5-.31-1-.49-1.48s-.23-.67-.34-1c-.27-.73-.54-1.45-.8-2.07a47.17,47.17,0,0,0-8-13c-.31-.36-.62-.71-.92-1a45.22,45.22,0,0,0-6.11-5.58,14.07,14.07,0,0,1,11-5.32h.62A14.11,14.11,0,0,1,192.94,48.67Z"/></g></g></svg>